<?xml version="1.0" encoding="utf-8" standalone="no"?>
<!DOCTYPE svg PUBLIC "-//W3C//DTD SVG 1.1//EN"
  "http://www.w3.org/Graphics/SVG/1.1/DTD/svg11.dtd">
<!-- Created with matplotlib (https://matplotlib.org/) -->
<svg height="288pt" version="1.1" viewBox="0 0 432 288" width="432pt" xmlns="http://www.w3.org/2000/svg" xmlns:xlink="http://www.w3.org/1999/xlink">
 <defs>
  <style type="text/css">
*{stroke-linecap:butt;stroke-linejoin:round;}
  </style>
 </defs>
 <g id="figure_1">
  <g id="patch_1">
   <path d="M 0 288 
L 432 288 
L 432 0 
L 0 0 
z
" style="fill:#ffffff;"/>
  </g>
  <g id="axes_1">
   <g id="patch_2">
    <path d="M 16.504646 258.945354 
L 429.165354 258.945354 
L 429.165354 2.834646 
L 16.504646 2.834646 
z
" style="fill:#ffffff;"/>
   </g>
   <g id="line2d_1">
    <path clip-path="url(#p5eb781a2ce)" d="M 28.183722 251.696938 
L 29.747186 240.191515 
L 31.31065 240.191515 
L 32.874115 251.696938 
L 34.437579 251.696938 
L 36.001043 240.191515 
L 37.564507 240.191515 
L 39.127971 228.686093 
L 40.691435 228.686093 
L 42.254899 217.18067 
L 43.818363 217.18067 
L 45.381827 228.686093 
L 46.945291 228.686093 
L 48.508755 217.18067 
L 50.072219 217.18067 
L 51.635683 251.696938 
L 53.199148 251.696938 
L 54.762612 240.191515 
L 56.326076 240.191515 
L 57.88954 251.696938 
L 59.453004 251.696938 
L 61.016468 240.191515 
L 62.579932 240.191515 
L 64.143396 228.686093 
L 65.70686 228.686093 
L 67.270324 217.18067 
L 68.833788 217.18067 
L 70.397252 228.686093 
L 71.960717 228.686093 
L 73.524181 217.18067 
L 75.087645 217.18067 
L 76.651109 205.675247 
L 78.214573 205.675247 
L 79.778037 194.169825 
L 81.341501 194.169825 
L 82.904965 205.675247 
L 84.468429 205.675247 
L 86.031893 194.169825 
L 87.595357 194.169825 
L 89.158821 182.664402 
L 90.722285 182.664402 
L 92.28575 171.158979 
L 93.849214 171.158979 
L 95.412678 182.664402 
L 96.976142 182.664402 
L 98.539606 171.158979 
L 100.10307 171.158979 
L 101.666534 205.675247 
L 103.229998 205.675247 
L 104.793462 194.169825 
L 106.356926 194.169825 
L 107.92039 205.675247 
L 109.483854 205.675247 
L 111.047318 194.169825 
L 112.610783 194.169825 
L 114.174247 182.664402 
L 115.737711 182.664402 
L 117.301175 171.158979 
L 118.864639 171.158979 
L 120.428103 182.664402 
L 121.991567 182.664402 
L 123.555031 171.158979 
L 125.118495 171.158979 
L 126.681959 251.696938 
L 128.245423 251.696938 
L 129.808887 240.191515 
L 131.372351 240.191515 
L 132.935816 251.696938 
L 134.49928 251.696938 
L 136.062744 240.191515 
L 137.626208 240.191515 
L 139.189672 228.686093 
L 140.753136 228.686093 
L 142.3166 217.18067 
L 143.880064 217.18067 
L 145.443528 228.686093 
L 147.006992 228.686093 
L 148.570456 217.18067 
L 150.13392 217.18067 
L 151.697384 251.696938 
L 153.260849 251.696938 
L 154.824313 240.191515 
L 156.387777 240.191515 
L 157.951241 251.696938 
L 159.514705 251.696938 
L 161.078169 240.191515 
L 162.641633 240.191515 
L 164.205097 228.686093 
L 165.768561 228.686093 
L 167.332025 217.18067 
L 168.895489 217.18067 
L 170.458953 228.686093 
L 172.022417 228.686093 
L 173.585882 217.18067 
L 175.149346 217.18067 
L 176.71281 205.675247 
L 178.276274 205.675247 
L 179.839738 194.169825 
L 181.403202 194.169825 
L 182.966666 205.675247 
L 184.53013 205.675247 
L 186.093594 194.169825 
L 187.657058 194.169825 
L 189.220522 182.664402 
L 190.783986 182.664402 
L 192.34745 171.158979 
L 193.910915 171.158979 
L 195.474379 182.664402 
L 197.037843 182.664402 
L 198.601307 171.158979 
L 200.164771 171.158979 
L 201.728235 205.675247 
L 203.291699 205.675247 
L 204.855163 194.169825 
L 206.418627 194.169825 
L 207.982091 205.675247 
L 209.545555 205.675247 
L 211.109019 194.169825 
L 212.672483 194.169825 
L 214.235948 182.664402 
L 215.799412 182.664402 
L 217.362876 171.158979 
L 218.92634 171.158979 
L 220.489804 182.664402 
L 222.053268 182.664402 
L 223.616732 171.158979 
L 225.180196 171.158979 
L 226.74366 159.653557 
L 228.307124 159.653557 
L 229.870588 148.148134 
L 231.434052 148.148134 
L 232.997517 159.653557 
L 234.560981 159.653557 
L 236.124445 148.148134 
L 237.687909 148.148134 
L 239.251373 136.642711 
L 240.814837 136.642711 
L 242.378301 125.137289 
L 243.941765 125.137289 
L 245.505229 136.642711 
L 247.068693 136.642711 
L 248.632157 125.137289 
L 250.195621 125.137289 
L 251.759085 159.653557 
L 253.32255 159.653557 
L 254.886014 148.148134 
L 256.449478 148.148134 
L 258.012942 159.653557 
L 259.576406 159.653557 
L 261.13987 148.148134 
L 262.703334 148.148134 
L 264.266798 136.642711 
L 265.830262 136.642711 
L 267.393726 125.137289 
L 268.95719 125.137289 
L 270.520654 136.642711 
L 272.084118 136.642711 
L 273.647583 125.137289 
L 275.211047 125.137289 
L 276.774511 113.631866 
L 278.337975 113.631866 
L 279.901439 102.126443 
L 281.464903 102.126443 
L 283.028367 113.631866 
L 284.591831 113.631866 
L 286.155295 102.126443 
L 287.718759 102.126443 
L 289.282223 90.621021 
L 290.845687 90.621021 
L 292.409151 79.115598 
L 293.972616 79.115598 
L 295.53608 90.621021 
L 297.099544 90.621021 
L 298.663008 79.115598 
L 300.226472 79.115598 
L 301.789936 113.631866 
L 303.3534 113.631866 
L 304.916864 102.126443 
L 306.480328 102.126443 
L 308.043792 113.631866 
L 309.607256 113.631866 
L 311.17072 102.126443 
L 312.734184 102.126443 
L 314.297649 90.621021 
L 315.861113 90.621021 
L 317.424577 79.115598 
L 318.988041 79.115598 
L 320.551505 90.621021 
L 322.114969 90.621021 
L 323.678433 79.115598 
L 325.241897 79.115598 
L 326.805361 159.653557 
L 328.368825 159.653557 
L 329.932289 148.148134 
L 331.495753 148.148134 
L 333.059217 159.653557 
L 334.622682 159.653557 
L 336.186146 148.148134 
L 337.74961 148.148134 
L 339.313074 136.642711 
L 340.876538 136.642711 
L 342.440002 125.137289 
L 344.003466 125.137289 
L 345.56693 136.642711 
L 347.130394 136.642711 
L 348.693858 125.137289 
L 350.257322 125.137289 
L 351.820786 159.653557 
L 353.38425 159.653557 
L 354.947715 148.148134 
L 356.511179 148.148134 
L 358.074643 159.653557 
L 359.638107 159.653557 
L 361.201571 148.148134 
L 362.765035 148.148134 
L 364.328499 136.642711 
L 365.891963 136.642711 
L 367.455427 125.137289 
L 369.018891 125.137289 
L 370.582355 136.642711 
L 372.145819 136.642711 
L 373.709283 125.137289 
L 375.272748 125.137289 
L 376.836212 113.631866 
L 378.399676 113.631866 
L 379.96314 102.126443 
L 381.526604 102.126443 
L 383.090068 113.631866 
L 384.653532 113.631866 
L 386.216996 102.126443 
L 387.78046 102.126443 
L 389.343924 90.621021 
L 390.907388 90.621021 
L 392.470852 79.115598 
L 394.034317 79.115598 
L 395.597781 90.621021 
L 397.161245 90.621021 
L 398.724709 79.115598 
L 400.288173 79.115598 
L 401.851637 113.631866 
L 403.415101 113.631866 
L 404.978565 102.126443 
L 406.542029 102.126443 
L 408.105493 113.631866 
L 409.668957 113.631866 
L 411.232421 102.126443 
L 412.795885 102.126443 
L 414.35935 90.621021 
L 415.922814 90.621021 
L 417.486278 79.115598 
L 417.486278 79.115598 
" style="fill:none;stroke:#009afa;stroke-linecap:round;"/>
   </g>
   <g id="matplotlib.axis_1">
    <g id="xtick_1">
     <g id="line2d_2">
      <defs>
       <path d="M 0 0 
L 0 -3.5 
" id="m1310d7ead8" style="stroke:#000000;stroke-width:0.8;"/>
      </defs>
      <g>
       <use style="stroke:#000000;stroke-width:0.8;" x="26.620258" xlink:href="#m1310d7ead8" y="258.945354"/>
      </g>
     </g>
     <g id="text_1">
      <!-- 0 -->
      <defs>
       <path d="M 31.78125 66.40625 
Q 24.171875 66.40625 20.328125 58.90625 
Q 16.5 51.421875 16.5 36.375 
Q 16.5 21.390625 20.328125 13.890625 
Q 24.171875 6.390625 31.78125 6.390625 
Q 39.453125 6.390625 43.28125 13.890625 
Q 47.125 21.390625 47.125 36.375 
Q 47.125 51.421875 43.28125 58.90625 
Q 39.453125 66.40625 31.78125 66.40625 
z
M 31.78125 74.21875 
Q 44.046875 74.21875 50.515625 64.515625 
Q 56.984375 54.828125 56.984375 36.375 
Q 56.984375 17.96875 50.515625 8.265625 
Q 44.046875 -1.421875 31.78125 -1.421875 
Q 19.53125 -1.421875 13.0625 8.265625 
Q 6.59375 17.96875 6.59375 36.375 
Q 6.59375 54.828125 13.0625 64.515625 
Q 19.53125 74.21875 31.78125 74.21875 
z
" id="DejaVuSans-48"/>
      </defs>
      <g transform="translate(24.075258 268.524104)scale(0.08 -0.08)">
       <use xlink:href="#DejaVuSans-48"/>
      </g>
     </g>
    </g>
    <g id="xtick_2">
     <g id="line2d_3">
      <g>
       <use style="stroke:#000000;stroke-width:0.8;" x="104.793462" xlink:href="#m1310d7ead8" y="258.945354"/>
      </g>
     </g>
     <g id="text_2">
      <!-- 50 -->
      <defs>
       <path d="M 10.796875 72.90625 
L 49.515625 72.90625 
L 49.515625 64.59375 
L 19.828125 64.59375 
L 19.828125 46.734375 
Q 21.96875 47.46875 24.109375 47.828125 
Q 26.265625 48.1875 28.421875 48.1875 
Q 40.625 48.1875 47.75 41.5 
Q 54.890625 34.8125 54.890625 23.390625 
Q 54.890625 11.625 47.5625 5.09375 
Q 40.234375 -1.421875 26.90625 -1.421875 
Q 22.3125 -1.421875 17.546875 -0.640625 
Q 12.796875 0.140625 7.71875 1.703125 
L 7.71875 11.625 
Q 12.109375 9.234375 16.796875 8.0625 
Q 21.484375 6.890625 26.703125 6.890625 
Q 35.15625 6.890625 40.078125 11.328125 
Q 45.015625 15.765625 45.015625 23.390625 
Q 45.015625 31 40.078125 35.4375 
Q 35.15625 39.890625 26.703125 39.890625 
Q 22.75 39.890625 18.8125 39.015625 
Q 14.890625 38.140625 10.796875 36.28125 
z
" id="DejaVuSans-53"/>
      </defs>
      <g transform="translate(99.703462 268.524104)scale(0.08 -0.08)">
       <use xlink:href="#DejaVuSans-53"/>
       <use x="63.623047" xlink:href="#DejaVuSans-48"/>
      </g>
     </g>
    </g>
    <g id="xtick_3">
     <g id="line2d_4">
      <g>
       <use style="stroke:#000000;stroke-width:0.8;" x="182.966666" xlink:href="#m1310d7ead8" y="258.945354"/>
      </g>
     </g>
     <g id="text_3">
      <!-- 100 -->
      <defs>
       <path d="M 12.40625 8.296875 
L 28.515625 8.296875 
L 28.515625 63.921875 
L 10.984375 60.40625 
L 10.984375 69.390625 
L 28.421875 72.90625 
L 38.28125 72.90625 
L 38.28125 8.296875 
L 54.390625 8.296875 
L 54.390625 0 
L 12.40625 0 
z
" id="DejaVuSans-49"/>
      </defs>
      <g transform="translate(175.331666 268.524104)scale(0.08 -0.08)">
       <use xlink:href="#DejaVuSans-49"/>
       <use x="63.623047" xlink:href="#DejaVuSans-48"/>
       <use x="127.246094" xlink:href="#DejaVuSans-48"/>
      </g>
     </g>
    </g>
    <g id="xtick_4">
     <g id="line2d_5">
      <g>
       <use style="stroke:#000000;stroke-width:0.8;" x="261.13987" xlink:href="#m1310d7ead8" y="258.945354"/>
      </g>
     </g>
     <g id="text_4">
      <!-- 150 -->
      <g transform="translate(253.50487 268.524104)scale(0.08 -0.08)">
       <use xlink:href="#DejaVuSans-49"/>
       <use x="63.623047" xlink:href="#DejaVuSans-53"/>
       <use x="127.246094" xlink:href="#DejaVuSans-48"/>
      </g>
     </g>
    </g>
    <g id="xtick_5">
     <g id="line2d_6">
      <g>
       <use style="stroke:#000000;stroke-width:0.8;" x="339.313074" xlink:href="#m1310d7ead8" y="258.945354"/>
      </g>
     </g>
     <g id="text_5">
      <!-- 200 -->
      <defs>
       <path d="M 19.1875 8.296875 
L 53.609375 8.296875 
L 53.609375 0 
L 7.328125 0 
L 7.328125 8.296875 
Q 12.9375 14.109375 22.625 23.890625 
Q 32.328125 33.6875 34.8125 36.53125 
Q 39.546875 41.84375 41.421875 45.53125 
Q 43.3125 49.21875 43.3125 52.78125 
Q 43.3125 58.59375 39.234375 62.25 
Q 35.15625 65.921875 28.609375 65.921875 
Q 23.96875 65.921875 18.8125 64.3125 
Q 13.671875 62.703125 7.8125 59.421875 
L 7.8125 69.390625 
Q 13.765625 71.78125 18.9375 73 
Q 24.125 74.21875 28.421875 74.21875 
Q 39.75 74.21875 46.484375 68.546875 
Q 53.21875 62.890625 53.21875 53.421875 
Q 53.21875 48.921875 51.53125 44.890625 
Q 49.859375 40.875 45.40625 35.40625 
Q 44.1875 33.984375 37.640625 27.21875 
Q 31.109375 20.453125 19.1875 8.296875 
z
" id="DejaVuSans-50"/>
      </defs>
      <g transform="translate(331.678074 268.524104)scale(0.08 -0.08)">
       <use xlink:href="#DejaVuSans-50"/>
       <use x="63.623047" xlink:href="#DejaVuSans-48"/>
       <use x="127.246094" xlink:href="#DejaVuSans-48"/>
      </g>
     </g>
    </g>
    <g id="xtick_6">
     <g id="line2d_7">
      <g>
       <use style="stroke:#000000;stroke-width:0.8;" x="417.486278" xlink:href="#m1310d7ead8" y="258.945354"/>
      </g>
     </g>
     <g id="text_6">
      <!-- 250 -->
      <g transform="translate(409.851278 268.524104)scale(0.08 -0.08)">
       <use xlink:href="#DejaVuSans-50"/>
       <use x="63.623047" xlink:href="#DejaVuSans-53"/>
       <use x="127.246094" xlink:href="#DejaVuSans-48"/>
      </g>
     </g>
    </g>
    <g id="text_7">
     <!-- $k$ -->
     <defs>
      <path d="M 18.3125 75.984375 
L 27.296875 75.984375 
L 18.703125 31.6875 
L 49.515625 54.6875 
L 61.1875 54.6875 
L 26.8125 28.515625 
L 51.90625 0 
L 41.015625 0 
L 17.671875 26.703125 
L 12.5 0 
L 3.515625 0 
z
" id="DejaVuSans-Oblique-107"/>
     </defs>
     <g transform="translate(219.645 282.546136)scale(0.11 -0.11)">
      <use transform="translate(0 0.015625)" xlink:href="#DejaVuSans-Oblique-107"/>
     </g>
    </g>
   </g>
   <g id="matplotlib.axis_2">
    <g id="ytick_1">
     <g id="line2d_8">
      <defs>
       <path d="M 0 0 
L 3.5 0 
" id="m827d873a83" style="stroke:#000000;stroke-width:0.8;"/>
      </defs>
      <g>
       <use style="stroke:#000000;stroke-width:0.8;" x="16.504646" xlink:href="#m827d873a83" y="251.696938"/>
      </g>
     </g>
     <g id="text_8">
      <!-- 0 -->
      <g transform="translate(7.914646 254.736313)scale(0.08 -0.08)">
       <use xlink:href="#DejaVuSans-48"/>
      </g>
     </g>
    </g>
    <g id="ytick_2">
     <g id="line2d_9">
      <g>
       <use style="stroke:#000000;stroke-width:0.8;" x="16.504646" xlink:href="#m827d873a83" y="194.169825"/>
      </g>
     </g>
     <g id="text_9">
      <!-- 5 -->
      <g transform="translate(7.914646 197.2092)scale(0.08 -0.08)">
       <use xlink:href="#DejaVuSans-53"/>
      </g>
     </g>
    </g>
    <g id="ytick_3">
     <g id="line2d_10">
      <g>
       <use style="stroke:#000000;stroke-width:0.8;" x="16.504646" xlink:href="#m827d873a83" y="136.642711"/>
      </g>
     </g>
     <g id="text_10">
      <!-- 10 -->
      <g transform="translate(2.824646 139.682086)scale(0.08 -0.08)">
       <use xlink:href="#DejaVuSans-49"/>
       <use x="63.623047" xlink:href="#DejaVuSans-48"/>
      </g>
     </g>
    </g>
    <g id="ytick_4">
     <g id="line2d_11">
      <g>
       <use style="stroke:#000000;stroke-width:0.8;" x="16.504646" xlink:href="#m827d873a83" y="79.115598"/>
      </g>
     </g>
     <g id="text_11">
      <!-- 15 -->
      <g transform="translate(2.824646 82.154973)scale(0.08 -0.08)">
       <use xlink:href="#DejaVuSans-49"/>
       <use x="63.623047" xlink:href="#DejaVuSans-53"/>
      </g>
     </g>
    </g>
    <g id="ytick_5">
     <g id="line2d_12">
      <g>
       <use style="stroke:#000000;stroke-width:0.8;" x="16.504646" xlink:href="#m827d873a83" y="21.588485"/>
      </g>
     </g>
     <g id="text_12">
      <!-- 20 -->
      <g transform="translate(2.824646 24.62786)scale(0.08 -0.08)">
       <use xlink:href="#DejaVuSans-50"/>
       <use x="63.623047" xlink:href="#DejaVuSans-48"/>
      </g>
     </g>
    </g>
   </g>
   <g id="line2d_13">
    <path clip-path="url(#p5eb781a2ce)" d="M 28.183722 251.696938 
L 31.31065 251.696938 
L 32.874115 240.191515 
L 37.564507 240.191515 
L 39.127971 251.696938 
L 43.818363 251.696938 
L 45.381827 240.191515 
L 50.072219 240.191515 
L 51.635683 228.686093 
L 56.326076 228.686093 
L 57.88954 217.18067 
L 62.579932 217.18067 
L 64.143396 228.686093 
L 68.833788 228.686093 
L 70.397252 217.18067 
L 75.087645 217.18067 
L 76.651109 251.696938 
L 81.341501 251.696938 
L 82.904965 240.191515 
L 87.595357 240.191515 
L 89.158821 251.696938 
L 93.849214 251.696938 
L 95.412678 240.191515 
L 100.10307 240.191515 
L 101.666534 228.686093 
L 106.356926 228.686093 
L 107.92039 217.18067 
L 112.610783 217.18067 
L 114.174247 228.686093 
L 118.864639 228.686093 
L 120.428103 217.18067 
L 125.118495 217.18067 
L 126.681959 205.675247 
L 131.372351 205.675247 
L 132.935816 194.169825 
L 137.626208 194.169825 
L 139.189672 205.675247 
L 143.880064 205.675247 
L 145.443528 194.169825 
L 150.13392 194.169825 
L 151.697384 182.664402 
L 156.387777 182.664402 
L 157.951241 171.158979 
L 162.641633 171.158979 
L 164.205097 182.664402 
L 168.895489 182.664402 
L 170.458953 171.158979 
L 175.149346 171.158979 
L 176.71281 205.675247 
L 181.403202 205.675247 
L 182.966666 194.169825 
L 187.657058 194.169825 
L 189.220522 205.675247 
L 193.910915 205.675247 
L 195.474379 194.169825 
L 200.164771 194.169825 
L 201.728235 182.664402 
L 206.418627 182.664402 
L 207.982091 171.158979 
L 212.672483 171.158979 
L 214.235948 182.664402 
L 218.92634 182.664402 
L 220.489804 171.158979 
L 225.180196 171.158979 
L 226.74366 251.696938 
L 231.434052 251.696938 
L 232.997517 240.191515 
L 237.687909 240.191515 
L 239.251373 251.696938 
L 243.941765 251.696938 
L 245.505229 240.191515 
L 250.195621 240.191515 
L 251.759085 228.686093 
L 256.449478 228.686093 
L 258.012942 217.18067 
L 262.703334 217.18067 
L 264.266798 228.686093 
L 268.95719 228.686093 
L 270.520654 217.18067 
L 275.211047 217.18067 
L 276.774511 251.696938 
L 281.464903 251.696938 
L 283.028367 240.191515 
L 287.718759 240.191515 
L 289.282223 251.696938 
L 293.972616 251.696938 
L 295.53608 240.191515 
L 300.226472 240.191515 
L 301.789936 228.686093 
L 306.480328 228.686093 
L 308.043792 217.18067 
L 312.734184 217.18067 
L 314.297649 228.686093 
L 318.988041 228.686093 
L 320.551505 217.18067 
L 325.241897 217.18067 
L 326.805361 205.675247 
L 331.495753 205.675247 
L 333.059217 194.169825 
L 337.74961 194.169825 
L 339.313074 205.675247 
L 344.003466 205.675247 
L 345.56693 194.169825 
L 350.257322 194.169825 
L 351.820786 182.664402 
L 356.511179 182.664402 
L 358.074643 171.158979 
L 362.765035 171.158979 
L 364.328499 182.664402 
L 369.018891 182.664402 
L 370.582355 171.158979 
L 375.272748 171.158979 
L 376.836212 205.675247 
L 381.526604 205.675247 
L 383.090068 194.169825 
L 387.78046 194.169825 
L 389.343924 205.675247 
L 394.034317 205.675247 
L 395.597781 194.169825 
L 400.288173 194.169825 
L 401.851637 182.664402 
L 406.542029 182.664402 
L 408.105493 171.158979 
L 412.795885 171.158979 
L 414.35935 182.664402 
L 417.486278 182.664402 
L 417.486278 182.664402 
" style="fill:none;stroke:#e36f47;stroke-linecap:round;"/>
   </g>
   <g id="patch_3">
    <path d="M 16.504646 258.945354 
L 16.504646 2.834646 
" style="fill:none;stroke:#000000;stroke-linecap:square;stroke-linejoin:miter;"/>
   </g>
   <g id="patch_4">
    <path d="M 16.504646 258.945354 
L 429.165354 258.945354 
" style="fill:none;stroke:#000000;stroke-linecap:square;stroke-linejoin:miter;"/>
   </g>
   <g id="line2d_14">
    <path clip-path="url(#p5eb781a2ce)" d="M 28.183722 251.696938 
L 29.747186 240.191515 
L 34.437579 240.191515 
L 36.001043 228.686093 
L 40.691435 228.686093 
L 42.254899 217.18067 
L 46.945291 217.18067 
L 48.508755 205.675247 
L 50.072219 205.675247 
L 51.635683 228.686093 
L 53.199148 228.686093 
L 54.762612 217.18067 
L 59.453004 217.18067 
L 61.016468 205.675247 
L 65.70686 205.675247 
L 67.270324 194.169825 
L 71.960717 194.169825 
L 73.524181 182.664402 
L 75.087645 182.664402 
L 76.651109 205.675247 
L 78.214573 205.675247 
L 79.778037 194.169825 
L 84.468429 194.169825 
L 86.031893 182.664402 
L 90.722285 182.664402 
L 92.28575 171.158979 
L 96.976142 171.158979 
L 98.539606 159.653557 
L 100.10307 159.653557 
L 101.666534 182.664402 
L 103.229998 182.664402 
L 104.793462 171.158979 
L 109.483854 171.158979 
L 111.047318 159.653557 
L 115.737711 159.653557 
L 117.301175 148.148134 
L 121.991567 148.148134 
L 123.555031 136.642711 
L 125.118495 136.642711 
L 126.681959 205.675247 
L 128.245423 205.675247 
L 129.808887 194.169825 
L 134.49928 194.169825 
L 136.062744 182.664402 
L 140.753136 182.664402 
L 142.3166 171.158979 
L 147.006992 171.158979 
L 148.570456 159.653557 
L 150.13392 159.653557 
L 151.697384 182.664402 
L 153.260849 182.664402 
L 154.824313 171.158979 
L 159.514705 171.158979 
L 161.078169 159.653557 
L 165.768561 159.653557 
L 167.332025 148.148134 
L 172.022417 148.148134 
L 173.585882 136.642711 
L 175.149346 136.642711 
L 176.71281 159.653557 
L 178.276274 159.653557 
L 179.839738 148.148134 
L 184.53013 148.148134 
L 186.093594 136.642711 
L 190.783986 136.642711 
L 192.34745 125.137289 
L 197.037843 125.137289 
L 198.601307 113.631866 
L 200.164771 113.631866 
L 201.728235 136.642711 
L 203.291699 136.642711 
L 204.855163 125.137289 
L 209.545555 125.137289 
L 211.109019 113.631866 
L 215.799412 113.631866 
L 217.362876 102.126443 
L 222.053268 102.126443 
L 223.616732 90.621021 
L 225.180196 90.621021 
L 226.74366 159.653557 
L 228.307124 159.653557 
L 229.870588 148.148134 
L 234.560981 148.148134 
L 236.124445 136.642711 
L 240.814837 136.642711 
L 242.378301 125.137289 
L 247.068693 125.137289 
L 248.632157 113.631866 
L 250.195621 113.631866 
L 251.759085 136.642711 
L 253.32255 136.642711 
L 254.886014 125.137289 
L 259.576406 125.137289 
L 261.13987 113.631866 
L 265.830262 113.631866 
L 267.393726 102.126443 
L 272.084118 102.126443 
L 273.647583 90.621021 
L 275.211047 90.621021 
L 276.774511 113.631866 
L 278.337975 113.631866 
L 279.901439 102.126443 
L 284.591831 102.126443 
L 286.155295 90.621021 
L 290.845687 90.621021 
L 292.409151 79.115598 
L 297.099544 79.115598 
L 298.663008 67.610175 
L 300.226472 67.610175 
L 301.789936 90.621021 
L 303.3534 90.621021 
L 304.916864 79.115598 
L 309.607256 79.115598 
L 311.17072 67.610175 
L 315.861113 67.610175 
L 317.424577 56.104753 
L 322.114969 56.104753 
L 323.678433 44.59933 
L 325.241897 44.59933 
L 326.805361 113.631866 
L 328.368825 113.631866 
L 329.932289 102.126443 
L 334.622682 102.126443 
L 336.186146 90.621021 
L 340.876538 90.621021 
L 342.440002 79.115598 
L 347.130394 79.115598 
L 348.693858 67.610175 
L 350.257322 67.610175 
L 351.820786 90.621021 
L 353.38425 90.621021 
L 354.947715 79.115598 
L 359.638107 79.115598 
L 361.201571 67.610175 
L 365.891963 67.610175 
L 367.455427 56.104753 
L 372.145819 56.104753 
L 373.709283 44.59933 
L 375.272748 44.59933 
L 376.836212 67.610175 
L 378.399676 67.610175 
L 379.96314 56.104753 
L 384.653532 56.104753 
L 386.216996 44.59933 
L 390.907388 44.59933 
L 392.470852 33.093907 
L 397.161245 33.093907 
L 398.724709 21.588485 
L 400.288173 21.588485 
L 401.851637 44.59933 
L 403.415101 44.59933 
L 404.978565 33.093907 
L 409.668957 33.093907 
L 411.232421 21.588485 
L 415.922814 21.588485 
L 417.486278 10.083062 
L 417.486278 10.083062 
" style="fill:none;stroke:#3ea44e;stroke-linecap:round;"/>
   </g>
   <g id="line2d_15">
    <path clip-path="url(#p5eb781a2ce)" d="M 28.183722 240.191515 
L 29.747186 235.425813 
L 31.31065 231.768961 
L 32.874115 228.686093 
L 34.437579 225.970031 
L 37.564507 221.256451 
L 40.691435 217.18067 
L 43.818363 213.537768 
L 46.945291 210.213547 
L 50.072219 207.136628 
L 54.762612 202.883564 
L 59.453004 198.972468 
L 64.143396 195.332108 
L 70.397252 190.815964 
L 76.651109 186.612439 
L 82.904965 182.664402 
L 90.722285 178.026287 
L 98.539606 173.663365 
L 106.356926 169.531786 
L 115.737711 164.832902 
L 125.118495 160.375477 
L 136.062744 155.435666 
L 147.006992 150.737264 
L 159.514705 145.622182 
L 172.022417 140.74266 
L 186.093594 135.497865 
L 200.164771 130.479789 
L 215.799412 125.137289 
L 232.997517 119.509695 
L 250.195621 114.112094 
L 268.95719 108.455581 
L 289.282223 102.569616 
L 311.17072 96.4803 
L 333.059217 90.621021 
L 356.511179 84.57102 
L 381.526604 78.350267 
L 408.105493 71.976491 
L 417.486278 69.780233 
L 417.486278 69.780233 
" style="fill:none;stroke:#c371d2;stroke-linecap:round;"/>
   </g>
   <g id="legend_1">
    <g id="patch_5">
     <path d="M 22.104646 57.582146 
L 67.464646 57.582146 
Q 69.064646 57.582146 69.064646 55.982146 
L 69.064646 8.434646 
Q 69.064646 6.834646 67.464646 6.834646 
L 22.104646 6.834646 
Q 20.504646 6.834646 20.504646 8.434646 
L 20.504646 55.982146 
Q 20.504646 57.582146 22.104646 57.582146 
z
" style="fill:#ffffff;stroke:#000000;stroke-linejoin:miter;"/>
    </g>
    <g id="line2d_16">
     <path d="M 23.704646 13.313396 
L 39.704646 13.313396 
" style="fill:none;stroke:#009afa;stroke-linecap:square;"/>
    </g>
    <g id="line2d_17"/>
    <g id="text_13">
     <!-- $n_3(k)$ -->
     <defs>
      <path d="M 55.71875 33.015625 
L 49.3125 0 
L 40.28125 0 
L 46.6875 32.671875 
Q 47.125 34.96875 47.359375 36.71875 
Q 47.609375 38.484375 47.609375 39.5 
Q 47.609375 43.609375 45.015625 45.890625 
Q 42.4375 48.1875 37.796875 48.1875 
Q 30.5625 48.1875 25.34375 43.375 
Q 20.125 38.578125 18.5 30.328125 
L 12.5 0 
L 3.515625 0 
L 14.109375 54.6875 
L 23.09375 54.6875 
L 21.296875 46.09375 
Q 25.046875 50.828125 30.3125 53.40625 
Q 35.59375 56 41.40625 56 
Q 48.640625 56 52.609375 52.09375 
Q 56.59375 48.1875 56.59375 41.109375 
Q 56.59375 39.359375 56.375 37.359375 
Q 56.15625 35.359375 55.71875 33.015625 
z
" id="DejaVuSans-Oblique-110"/>
      <path d="M 40.578125 39.3125 
Q 47.65625 37.796875 51.625 33 
Q 55.609375 28.21875 55.609375 21.1875 
Q 55.609375 10.40625 48.1875 4.484375 
Q 40.765625 -1.421875 27.09375 -1.421875 
Q 22.515625 -1.421875 17.65625 -0.515625 
Q 12.796875 0.390625 7.625 2.203125 
L 7.625 11.71875 
Q 11.71875 9.328125 16.59375 8.109375 
Q 21.484375 6.890625 26.8125 6.890625 
Q 36.078125 6.890625 40.9375 10.546875 
Q 45.796875 14.203125 45.796875 21.1875 
Q 45.796875 27.640625 41.28125 31.265625 
Q 36.765625 34.90625 28.71875 34.90625 
L 20.21875 34.90625 
L 20.21875 43.015625 
L 29.109375 43.015625 
Q 36.375 43.015625 40.234375 45.921875 
Q 44.09375 48.828125 44.09375 54.296875 
Q 44.09375 59.90625 40.109375 62.90625 
Q 36.140625 65.921875 28.71875 65.921875 
Q 24.65625 65.921875 20.015625 65.03125 
Q 15.375 64.15625 9.8125 62.3125 
L 9.8125 71.09375 
Q 15.4375 72.65625 20.34375 73.4375 
Q 25.25 74.21875 29.59375 74.21875 
Q 40.828125 74.21875 47.359375 69.109375 
Q 53.90625 64.015625 53.90625 55.328125 
Q 53.90625 49.265625 50.4375 45.09375 
Q 46.96875 40.921875 40.578125 39.3125 
z
" id="DejaVuSans-51"/>
      <path d="M 31 75.875 
Q 24.46875 64.65625 21.28125 53.65625 
Q 18.109375 42.671875 18.109375 31.390625 
Q 18.109375 20.125 21.3125 9.0625 
Q 24.515625 -2 31 -13.1875 
L 23.1875 -13.1875 
Q 15.875 -1.703125 12.234375 9.375 
Q 8.59375 20.453125 8.59375 31.390625 
Q 8.59375 42.28125 12.203125 53.3125 
Q 15.828125 64.359375 23.1875 75.875 
z
" id="DejaVuSans-40"/>
      <path d="M 8.015625 75.875 
L 15.828125 75.875 
Q 23.140625 64.359375 26.78125 53.3125 
Q 30.421875 42.28125 30.421875 31.390625 
Q 30.421875 20.453125 26.78125 9.375 
Q 23.140625 -1.703125 15.828125 -13.1875 
L 8.015625 -13.1875 
Q 14.5 -2 17.703125 9.0625 
Q 20.90625 20.125 20.90625 31.390625 
Q 20.90625 42.671875 17.703125 53.65625 
Q 14.5 64.65625 8.015625 75.875 
z
" id="DejaVuSans-41"/>
     </defs>
     <g transform="translate(46.104646 16.113396)scale(0.08 -0.08)">
      <use transform="translate(0 0.015625)" xlink:href="#DejaVuSans-Oblique-110"/>
      <use transform="translate(63.378906 -16.390625)scale(0.7)" xlink:href="#DejaVuSans-51"/>
      <use transform="translate(110.649414 0.015625)" xlink:href="#DejaVuSans-40"/>
      <use transform="translate(149.663086 0.015625)" xlink:href="#DejaVuSans-Oblique-107"/>
      <use transform="translate(207.573242 0.015625)" xlink:href="#DejaVuSans-41"/>
     </g>
    </g>
    <g id="line2d_18">
     <path d="M 23.704646 25.055896 
L 39.704646 25.055896 
" style="fill:none;stroke:#e36f47;stroke-linecap:square;"/>
    </g>
    <g id="line2d_19"/>
    <g id="text_14">
     <!-- $n_5(k)$ -->
     <g transform="translate(46.104646 27.855896)scale(0.08 -0.08)">
      <use transform="translate(0 0.015625)" xlink:href="#DejaVuSans-Oblique-110"/>
      <use transform="translate(63.378906 -16.390625)scale(0.7)" xlink:href="#DejaVuSans-53"/>
      <use transform="translate(110.649414 0.015625)" xlink:href="#DejaVuSans-40"/>
      <use transform="translate(149.663086 0.015625)" xlink:href="#DejaVuSans-Oblique-107"/>
      <use transform="translate(207.573242 0.015625)" xlink:href="#DejaVuSans-41"/>
     </g>
    </g>
    <g id="line2d_20">
     <path d="M 23.704646 36.798396 
L 39.704646 36.798396 
" style="fill:none;stroke:#3ea44e;stroke-linecap:square;"/>
    </g>
    <g id="line2d_21"/>
    <g id="text_15">
     <!-- $h(k)$ -->
     <defs>
      <path d="M 55.71875 33.015625 
L 49.3125 0 
L 40.28125 0 
L 46.6875 32.671875 
Q 47.125 34.96875 47.359375 36.71875 
Q 47.609375 38.484375 47.609375 39.5 
Q 47.609375 43.609375 45.015625 45.890625 
Q 42.4375 48.1875 37.796875 48.1875 
Q 30.5625 48.1875 25.265625 43.296875 
Q 19.96875 38.421875 18.40625 30.328125 
L 12.5 0 
L 3.515625 0 
L 18.3125 75.984375 
L 27.296875 75.984375 
L 21.484375 46.09375 
Q 24.90625 50.6875 30.21875 53.34375 
Q 35.546875 56 41.40625 56 
Q 48.640625 56 52.609375 52.09375 
Q 56.59375 48.1875 56.59375 41.109375 
Q 56.59375 39.359375 56.375 37.359375 
Q 56.15625 35.359375 55.71875 33.015625 
z
" id="DejaVuSans-Oblique-104"/>
     </defs>
     <g transform="translate(46.104646 39.598396)scale(0.08 -0.08)">
      <use transform="translate(0 0.015625)" xlink:href="#DejaVuSans-Oblique-104"/>
      <use transform="translate(63.378906 0.015625)" xlink:href="#DejaVuSans-40"/>
      <use transform="translate(102.392578 0.015625)" xlink:href="#DejaVuSans-Oblique-107"/>
      <use transform="translate(160.302734 0.015625)" xlink:href="#DejaVuSans-41"/>
     </g>
    </g>
    <g id="line2d_22">
     <path d="M 23.704646 49.918396 
L 39.704646 49.918396 
" style="fill:none;stroke:#c371d2;stroke-linecap:square;"/>
    </g>
    <g id="line2d_23"/>
    <g id="text_16">
     <!-- $\sqrt{k}$ -->
     <defs>
      <path d="M 108.90625 155.203125 
L 52.703125 -29.5 
L 48.5 -29.5 
L 25.40625 45.59375 
Q 24.296875 49.203125 22.890625 50.796875 
Q 21.5 52.40625 19.203125 52.40625 
Q 15.796875 52.40625 12.40625 49.703125 
L 11.203125 51.703125 
L 27.59375 64.296875 
L 30.09375 64.296875 
L 52.796875 -9.40625 
L 53.203125 -9.40625 
L 103.203125 155.203125 
z
" id="STIXSizeOneSym-Regular-8730"/>
     </defs>
     <g transform="translate(46.104646 52.718396)scale(0.08 -0.08)">
      <use transform="translate(0 17.90625)scale(0.580577)" xlink:href="#STIXSizeOneSym-Regular-8730"/>
      <use transform="translate(73.855545 0.765625)" xlink:href="#DejaVuSans-Oblique-107"/>
      <path d="M 61.355545 101.5 
L 61.355545 107.75 
L 144.265701 107.75 
L 144.265701 101.5 
L 61.355545 101.5 
z
"/>
     </g>
    </g>
   </g>
  </g>
 </g>
 <defs>
  <clipPath id="p5eb781a2ce">
   <rect height="256.110709" width="412.660709" x="16.504646" y="2.834646"/>
  </clipPath>
 </defs>
</svg>
