<?xml version="1.0" encoding="utf-8" standalone="no"?>
<!DOCTYPE svg PUBLIC "-//W3C//DTD SVG 1.1//EN"
  "http://www.w3.org/Graphics/SVG/1.1/DTD/svg11.dtd">
<!-- Created with matplotlib (https://matplotlib.org/) -->
<svg height="288pt" version="1.1" viewBox="0 0 432 288" width="432pt" xmlns="http://www.w3.org/2000/svg" xmlns:xlink="http://www.w3.org/1999/xlink">
 <defs>
  <style type="text/css">
*{stroke-linecap:butt;stroke-linejoin:round;}
  </style>
 </defs>
 <g id="figure_1">
  <g id="patch_1">
   <path d="M 0 288 
L 432 288 
L 432 0 
L 0 0 
z
" style="fill:#ffffff;"/>
  </g>
  <g id="axes_1">
   <g id="patch_2">
    <path d="M 23.974646 258.945354 
L 429.165354 258.945354 
L 429.165354 2.834646 
L 23.974646 2.834646 
z
" style="fill:#ffffff;"/>
   </g>
   <g id="line2d_1">
    <path clip-path="url(#p35381a822d)" d="M 35.442307 251.696938 
L 39.303473 227.53555 
L 43.164638 227.53555 
L 47.025804 251.696938 
L 50.886969 251.696938 
L 54.748135 227.53555 
L 58.6093 227.53555 
L 62.470466 203.374163 
L 66.331631 203.374163 
L 70.192797 179.212775 
L 74.053962 179.212775 
L 77.915128 203.374163 
L 81.776293 203.374163 
L 85.637459 179.212775 
L 89.498624 179.212775 
L 93.35979 251.696938 
L 97.220955 251.696938 
L 101.082121 227.53555 
L 104.943286 227.53555 
L 108.804452 251.696938 
L 112.665617 251.696938 
L 116.526783 227.53555 
L 120.387948 227.53555 
L 124.249114 203.374163 
L 128.110279 203.374163 
L 131.971445 179.212775 
L 135.832611 179.212775 
L 139.693776 203.374163 
L 143.554942 203.374163 
L 147.416107 179.212775 
L 151.277273 179.212775 
L 155.138438 155.051388 
L 158.999604 155.051388 
L 162.860769 130.89 
L 166.721935 130.89 
L 170.5831 155.051388 
L 174.444266 155.051388 
L 178.305431 130.89 
L 182.166597 130.89 
L 186.027762 106.728612 
L 189.888928 106.728612 
L 193.750093 82.567225 
L 197.611259 82.567225 
L 201.472424 106.728612 
L 205.33359 106.728612 
L 209.194755 82.567225 
L 213.055921 82.567225 
L 216.917086 155.051388 
L 220.778252 155.051388 
L 224.639417 130.89 
L 228.500583 130.89 
L 232.361748 155.051388 
L 236.222914 155.051388 
L 240.084079 130.89 
L 243.945245 130.89 
L 247.80641 106.728612 
L 251.667576 106.728612 
L 255.528741 82.567225 
L 259.389907 82.567225 
L 263.251072 106.728612 
L 267.112238 106.728612 
L 270.973403 82.567225 
L 274.834569 82.567225 
L 278.695734 251.696938 
L 282.5569 251.696938 
L 286.418065 227.53555 
L 290.279231 227.53555 
L 294.140396 251.696938 
L 298.001562 251.696938 
L 301.862727 227.53555 
L 305.723893 227.53555 
L 309.585058 203.374163 
L 313.446224 203.374163 
L 317.307389 179.212775 
L 321.168555 179.212775 
L 325.029721 203.374163 
L 328.890886 203.374163 
L 332.752052 179.212775 
L 336.613217 179.212775 
L 340.474383 251.696938 
L 344.335548 251.696938 
L 348.196714 227.53555 
L 352.057879 227.53555 
L 355.919045 251.696938 
L 359.78021 251.696938 
L 363.641376 227.53555 
L 367.502541 227.53555 
L 371.363707 203.374163 
L 375.224872 203.374163 
L 379.086038 179.212775 
L 382.947203 179.212775 
L 386.808369 203.374163 
L 390.669534 203.374163 
L 394.5307 179.212775 
L 398.391865 179.212775 
L 402.253031 155.051388 
L 406.114196 155.051388 
L 409.975362 130.89 
L 413.836527 130.89 
L 417.697693 155.051388 
" style="fill:none;stroke:#009afa;stroke-linecap:round;"/>
   </g>
   <g id="matplotlib.axis_1">
    <g id="xtick_1">
     <g id="line2d_2">
      <defs>
       <path d="M 0 0 
L 0 -3.5 
" id="m2b6b99e7c2" style="stroke:#000000;stroke-width:0.8;"/>
      </defs>
      <g>
       <use style="stroke:#000000;stroke-width:0.8;" x="31.581142" xlink:href="#m2b6b99e7c2" y="258.945354"/>
      </g>
     </g>
     <g id="text_1">
      <!-- 0 -->
      <defs>
       <path d="M 31.78125 66.40625 
Q 24.171875 66.40625 20.328125 58.90625 
Q 16.5 51.421875 16.5 36.375 
Q 16.5 21.390625 20.328125 13.890625 
Q 24.171875 6.390625 31.78125 6.390625 
Q 39.453125 6.390625 43.28125 13.890625 
Q 47.125 21.390625 47.125 36.375 
Q 47.125 51.421875 43.28125 58.90625 
Q 39.453125 66.40625 31.78125 66.40625 
z
M 31.78125 74.21875 
Q 44.046875 74.21875 50.515625 64.515625 
Q 56.984375 54.828125 56.984375 36.375 
Q 56.984375 17.96875 50.515625 8.265625 
Q 44.046875 -1.421875 31.78125 -1.421875 
Q 19.53125 -1.421875 13.0625 8.265625 
Q 6.59375 17.96875 6.59375 36.375 
Q 6.59375 54.828125 13.0625 64.515625 
Q 19.53125 74.21875 31.78125 74.21875 
z
" id="DejaVuSans-48"/>
      </defs>
      <g transform="translate(29.036142 268.524104)scale(0.08 -0.08)">
       <use xlink:href="#DejaVuSans-48"/>
      </g>
     </g>
    </g>
    <g id="xtick_2">
     <g id="line2d_3">
      <g>
       <use style="stroke:#000000;stroke-width:0.8;" x="128.110279" xlink:href="#m2b6b99e7c2" y="258.945354"/>
      </g>
     </g>
     <g id="text_2">
      <!-- 25 -->
      <defs>
       <path d="M 19.1875 8.296875 
L 53.609375 8.296875 
L 53.609375 0 
L 7.328125 0 
L 7.328125 8.296875 
Q 12.9375 14.109375 22.625 23.890625 
Q 32.328125 33.6875 34.8125 36.53125 
Q 39.546875 41.84375 41.421875 45.53125 
Q 43.3125 49.21875 43.3125 52.78125 
Q 43.3125 58.59375 39.234375 62.25 
Q 35.15625 65.921875 28.609375 65.921875 
Q 23.96875 65.921875 18.8125 64.3125 
Q 13.671875 62.703125 7.8125 59.421875 
L 7.8125 69.390625 
Q 13.765625 71.78125 18.9375 73 
Q 24.125 74.21875 28.421875 74.21875 
Q 39.75 74.21875 46.484375 68.546875 
Q 53.21875 62.890625 53.21875 53.421875 
Q 53.21875 48.921875 51.53125 44.890625 
Q 49.859375 40.875 45.40625 35.40625 
Q 44.1875 33.984375 37.640625 27.21875 
Q 31.109375 20.453125 19.1875 8.296875 
z
" id="DejaVuSans-50"/>
       <path d="M 10.796875 72.90625 
L 49.515625 72.90625 
L 49.515625 64.59375 
L 19.828125 64.59375 
L 19.828125 46.734375 
Q 21.96875 47.46875 24.109375 47.828125 
Q 26.265625 48.1875 28.421875 48.1875 
Q 40.625 48.1875 47.75 41.5 
Q 54.890625 34.8125 54.890625 23.390625 
Q 54.890625 11.625 47.5625 5.09375 
Q 40.234375 -1.421875 26.90625 -1.421875 
Q 22.3125 -1.421875 17.546875 -0.640625 
Q 12.796875 0.140625 7.71875 1.703125 
L 7.71875 11.625 
Q 12.109375 9.234375 16.796875 8.0625 
Q 21.484375 6.890625 26.703125 6.890625 
Q 35.15625 6.890625 40.078125 11.328125 
Q 45.015625 15.765625 45.015625 23.390625 
Q 45.015625 31 40.078125 35.4375 
Q 35.15625 39.890625 26.703125 39.890625 
Q 22.75 39.890625 18.8125 39.015625 
Q 14.890625 38.140625 10.796875 36.28125 
z
" id="DejaVuSans-53"/>
      </defs>
      <g transform="translate(123.020279 268.524104)scale(0.08 -0.08)">
       <use xlink:href="#DejaVuSans-50"/>
       <use x="63.623047" xlink:href="#DejaVuSans-53"/>
      </g>
     </g>
    </g>
    <g id="xtick_3">
     <g id="line2d_4">
      <g>
       <use style="stroke:#000000;stroke-width:0.8;" x="224.639417" xlink:href="#m2b6b99e7c2" y="258.945354"/>
      </g>
     </g>
     <g id="text_3">
      <!-- 50 -->
      <g transform="translate(219.549417 268.524104)scale(0.08 -0.08)">
       <use xlink:href="#DejaVuSans-53"/>
       <use x="63.623047" xlink:href="#DejaVuSans-48"/>
      </g>
     </g>
    </g>
    <g id="xtick_4">
     <g id="line2d_5">
      <g>
       <use style="stroke:#000000;stroke-width:0.8;" x="321.168555" xlink:href="#m2b6b99e7c2" y="258.945354"/>
      </g>
     </g>
     <g id="text_4">
      <!-- 75 -->
      <defs>
       <path d="M 8.203125 72.90625 
L 55.078125 72.90625 
L 55.078125 68.703125 
L 28.609375 0 
L 18.3125 0 
L 43.21875 64.59375 
L 8.203125 64.59375 
z
" id="DejaVuSans-55"/>
      </defs>
      <g transform="translate(316.078555 268.524104)scale(0.08 -0.08)">
       <use xlink:href="#DejaVuSans-55"/>
       <use x="63.623047" xlink:href="#DejaVuSans-53"/>
      </g>
     </g>
    </g>
    <g id="xtick_5">
     <g id="line2d_6">
      <g>
       <use style="stroke:#000000;stroke-width:0.8;" x="417.697693" xlink:href="#m2b6b99e7c2" y="258.945354"/>
      </g>
     </g>
     <g id="text_5">
      <!-- 100 -->
      <defs>
       <path d="M 12.40625 8.296875 
L 28.515625 8.296875 
L 28.515625 63.921875 
L 10.984375 60.40625 
L 10.984375 69.390625 
L 28.421875 72.90625 
L 38.28125 72.90625 
L 38.28125 8.296875 
L 54.390625 8.296875 
L 54.390625 0 
L 12.40625 0 
z
" id="DejaVuSans-49"/>
      </defs>
      <g transform="translate(410.062693 268.524104)scale(0.08 -0.08)">
       <use xlink:href="#DejaVuSans-49"/>
       <use x="63.623047" xlink:href="#DejaVuSans-48"/>
       <use x="127.246094" xlink:href="#DejaVuSans-48"/>
      </g>
     </g>
    </g>
    <g id="text_6">
     <!-- $k$ -->
     <defs>
      <path d="M 18.3125 75.984375 
L 27.296875 75.984375 
L 18.703125 31.6875 
L 49.515625 54.6875 
L 61.1875 54.6875 
L 26.8125 28.515625 
L 51.90625 0 
L 41.015625 0 
L 17.671875 26.703125 
L 12.5 0 
L 3.515625 0 
z
" id="DejaVuSans-Oblique-107"/>
     </defs>
     <g transform="translate(223.38 282.546136)scale(0.11 -0.11)">
      <use transform="translate(0 0.015625)" xlink:href="#DejaVuSans-Oblique-107"/>
     </g>
    </g>
   </g>
   <g id="matplotlib.axis_2">
    <g id="ytick_1">
     <g id="line2d_7">
      <defs>
       <path d="M 0 0 
L 3.5 0 
" id="mf36d0d36d7" style="stroke:#000000;stroke-width:0.8;"/>
      </defs>
      <g>
       <use style="stroke:#000000;stroke-width:0.8;" x="23.974646" xlink:href="#mf36d0d36d7" y="251.696938"/>
      </g>
     </g>
     <g id="text_7">
      <!-- 0.0 -->
      <defs>
       <path d="M 10.6875 12.40625 
L 21 12.40625 
L 21 0 
L 10.6875 0 
z
" id="DejaVuSans-46"/>
      </defs>
      <g transform="translate(7.752146 254.736313)scale(0.08 -0.08)">
       <use xlink:href="#DejaVuSans-48"/>
       <use x="63.623047" xlink:href="#DejaVuSans-46"/>
       <use x="95.410156" xlink:href="#DejaVuSans-48"/>
      </g>
     </g>
    </g>
    <g id="ytick_2">
     <g id="line2d_8">
      <g>
       <use style="stroke:#000000;stroke-width:0.8;" x="23.974646" xlink:href="#mf36d0d36d7" y="191.293469"/>
      </g>
     </g>
     <g id="text_8">
      <!-- 2.5 -->
      <g transform="translate(7.752146 194.332844)scale(0.08 -0.08)">
       <use xlink:href="#DejaVuSans-50"/>
       <use x="63.623047" xlink:href="#DejaVuSans-46"/>
       <use x="95.410156" xlink:href="#DejaVuSans-53"/>
      </g>
     </g>
    </g>
    <g id="ytick_3">
     <g id="line2d_9">
      <g>
       <use style="stroke:#000000;stroke-width:0.8;" x="23.974646" xlink:href="#mf36d0d36d7" y="130.89"/>
      </g>
     </g>
     <g id="text_9">
      <!-- 5.0 -->
      <g transform="translate(7.752146 133.929375)scale(0.08 -0.08)">
       <use xlink:href="#DejaVuSans-53"/>
       <use x="63.623047" xlink:href="#DejaVuSans-46"/>
       <use x="95.410156" xlink:href="#DejaVuSans-48"/>
      </g>
     </g>
    </g>
    <g id="ytick_4">
     <g id="line2d_10">
      <g>
       <use style="stroke:#000000;stroke-width:0.8;" x="23.974646" xlink:href="#mf36d0d36d7" y="70.486531"/>
      </g>
     </g>
     <g id="text_10">
      <!-- 7.5 -->
      <g transform="translate(7.752146 73.525906)scale(0.08 -0.08)">
       <use xlink:href="#DejaVuSans-55"/>
       <use x="63.623047" xlink:href="#DejaVuSans-46"/>
       <use x="95.410156" xlink:href="#DejaVuSans-53"/>
      </g>
     </g>
    </g>
    <g id="ytick_5">
     <g id="line2d_11">
      <g>
       <use style="stroke:#000000;stroke-width:0.8;" x="23.974646" xlink:href="#mf36d0d36d7" y="10.083062"/>
      </g>
     </g>
     <g id="text_11">
      <!-- 10.0 -->
      <g transform="translate(2.662146 13.122437)scale(0.08 -0.08)">
       <use xlink:href="#DejaVuSans-49"/>
       <use x="63.623047" xlink:href="#DejaVuSans-48"/>
       <use x="127.246094" xlink:href="#DejaVuSans-46"/>
       <use x="159.033203" xlink:href="#DejaVuSans-48"/>
      </g>
     </g>
    </g>
   </g>
   <g id="line2d_12">
    <path clip-path="url(#p35381a822d)" d="M 35.442307 251.696938 
L 39.303473 251.696938 
L 43.164638 251.696938 
L 47.025804 227.53555 
L 50.886969 227.53555 
L 54.748135 227.53555 
L 58.6093 227.53555 
L 62.470466 251.696938 
L 66.331631 251.696938 
L 70.192797 251.696938 
L 74.053962 251.696938 
L 77.915128 227.53555 
L 81.776293 227.53555 
L 85.637459 227.53555 
L 89.498624 227.53555 
L 93.35979 203.374163 
L 97.220955 203.374163 
L 101.082121 203.374163 
L 104.943286 203.374163 
L 108.804452 179.212775 
L 112.665617 179.212775 
L 116.526783 179.212775 
L 120.387948 179.212775 
L 124.249114 203.374163 
L 128.110279 203.374163 
L 131.971445 203.374163 
L 135.832611 203.374163 
L 139.693776 179.212775 
L 143.554942 179.212775 
L 147.416107 179.212775 
L 151.277273 179.212775 
L 155.138438 251.696938 
L 158.999604 251.696938 
L 162.860769 251.696938 
L 166.721935 251.696938 
L 170.5831 227.53555 
L 174.444266 227.53555 
L 178.305431 227.53555 
L 182.166597 227.53555 
L 186.027762 251.696938 
L 189.888928 251.696938 
L 193.750093 251.696938 
L 197.611259 251.696938 
L 201.472424 227.53555 
L 205.33359 227.53555 
L 209.194755 227.53555 
L 213.055921 227.53555 
L 216.917086 203.374163 
L 220.778252 203.374163 
L 224.639417 203.374163 
L 228.500583 203.374163 
L 232.361748 179.212775 
L 236.222914 179.212775 
L 240.084079 179.212775 
L 243.945245 179.212775 
L 247.80641 203.374163 
L 251.667576 203.374163 
L 255.528741 203.374163 
L 259.389907 203.374163 
L 263.251072 179.212775 
L 267.112238 179.212775 
L 270.973403 179.212775 
L 274.834569 179.212775 
L 278.695734 155.051388 
L 282.5569 155.051388 
L 286.418065 155.051388 
L 290.279231 155.051388 
L 294.140396 130.89 
L 298.001562 130.89 
L 301.862727 130.89 
L 305.723893 130.89 
L 309.585058 155.051388 
L 313.446224 155.051388 
L 317.307389 155.051388 
L 321.168555 155.051388 
L 325.029721 130.89 
L 328.890886 130.89 
L 332.752052 130.89 
L 336.613217 130.89 
L 340.474383 106.728612 
L 344.335548 106.728612 
L 348.196714 106.728612 
L 352.057879 106.728612 
L 355.919045 82.567225 
L 359.78021 82.567225 
L 363.641376 82.567225 
L 367.502541 82.567225 
L 371.363707 106.728612 
L 375.224872 106.728612 
L 379.086038 106.728612 
L 382.947203 106.728612 
L 386.808369 82.567225 
L 390.669534 82.567225 
L 394.5307 82.567225 
L 398.391865 82.567225 
L 402.253031 155.051388 
L 406.114196 155.051388 
L 409.975362 155.051388 
L 413.836527 155.051388 
L 417.697693 130.89 
" style="fill:none;stroke:#e36f47;stroke-linecap:round;"/>
   </g>
   <g id="patch_3">
    <path d="M 23.974646 258.945354 
L 23.974646 2.834646 
" style="fill:none;stroke:#000000;stroke-linecap:square;stroke-linejoin:miter;"/>
   </g>
   <g id="patch_4">
    <path d="M 23.974646 258.945354 
L 429.165354 258.945354 
" style="fill:none;stroke:#000000;stroke-linecap:square;stroke-linejoin:miter;"/>
   </g>
   <g id="line2d_13">
    <path clip-path="url(#p35381a822d)" d="M 35.442307 251.696938 
L 39.303473 227.53555 
L 43.164638 227.53555 
L 47.025804 227.53555 
L 50.886969 227.53555 
L 54.748135 203.374163 
L 58.6093 203.374163 
L 62.470466 203.374163 
L 66.331631 203.374163 
L 70.192797 179.212775 
L 74.053962 179.212775 
L 77.915128 179.212775 
L 81.776293 179.212775 
L 85.637459 155.051388 
L 89.498624 155.051388 
L 93.35979 203.374163 
L 97.220955 203.374163 
L 101.082121 179.212775 
L 104.943286 179.212775 
L 108.804452 179.212775 
L 112.665617 179.212775 
L 116.526783 155.051388 
L 120.387948 155.051388 
L 124.249114 155.051388 
L 128.110279 155.051388 
L 131.971445 130.89 
L 135.832611 130.89 
L 139.693776 130.89 
L 143.554942 130.89 
L 147.416107 106.728612 
L 151.277273 106.728612 
L 155.138438 155.051388 
L 158.999604 155.051388 
L 162.860769 130.89 
L 166.721935 130.89 
L 170.5831 130.89 
L 174.444266 130.89 
L 178.305431 106.728612 
L 182.166597 106.728612 
L 186.027762 106.728612 
L 189.888928 106.728612 
L 193.750093 82.567225 
L 197.611259 82.567225 
L 201.472424 82.567225 
L 205.33359 82.567225 
L 209.194755 58.405837 
L 213.055921 58.405837 
L 216.917086 106.728612 
L 220.778252 106.728612 
L 224.639417 82.567225 
L 228.500583 82.567225 
L 232.361748 82.567225 
L 236.222914 82.567225 
L 240.084079 58.405837 
L 243.945245 58.405837 
L 247.80641 58.405837 
L 251.667576 58.405837 
L 255.528741 34.24445 
L 259.389907 34.24445 
L 263.251072 34.24445 
L 267.112238 34.24445 
L 270.973403 10.083062 
L 274.834569 10.083062 
L 278.695734 155.051388 
L 282.5569 155.051388 
L 286.418065 130.89 
L 290.279231 130.89 
L 294.140396 130.89 
L 298.001562 130.89 
L 301.862727 106.728612 
L 305.723893 106.728612 
L 309.585058 106.728612 
L 313.446224 106.728612 
L 317.307389 82.567225 
L 321.168555 82.567225 
L 325.029721 82.567225 
L 328.890886 82.567225 
L 332.752052 58.405837 
L 336.613217 58.405837 
L 340.474383 106.728612 
L 344.335548 106.728612 
L 348.196714 82.567225 
L 352.057879 82.567225 
L 355.919045 82.567225 
L 359.78021 82.567225 
L 363.641376 58.405837 
L 367.502541 58.405837 
L 371.363707 58.405837 
L 375.224872 58.405837 
L 379.086038 34.24445 
L 382.947203 34.24445 
L 386.808369 34.24445 
L 390.669534 34.24445 
L 394.5307 10.083062 
L 398.391865 10.083062 
L 402.253031 58.405837 
L 406.114196 58.405837 
L 409.975362 34.24445 
L 413.836527 34.24445 
L 417.697693 34.24445 
" style="fill:none;stroke:#3ea44e;stroke-linecap:round;"/>
   </g>
   <g id="line2d_14">
    <path clip-path="url(#p35381a822d)" d="M 35.442307 227.53555 
L 39.303473 217.527576 
L 43.164638 209.848187 
L 47.025804 203.374163 
L 50.886969 197.670433 
L 54.748135 192.513867 
L 58.6093 187.771915 
L 62.470466 183.358214 
L 66.331631 179.212775 
L 70.192797 175.291922 
L 74.053962 171.562681 
L 77.915128 167.999436 
L 81.776293 164.581816 
L 85.637459 161.293304 
L 89.498624 158.120286 
L 93.35979 155.051388 
L 97.220955 152.076985 
L 101.082121 149.188852 
L 104.943286 146.379891 
L 108.804452 143.643928 
L 112.665617 140.97555 
L 116.526783 138.369985 
L 120.387948 135.822994 
L 124.249114 133.330796 
L 128.110279 130.89 
L 131.971445 128.497551 
L 135.832611 126.150685 
L 139.693776 123.846892 
L 143.554942 121.583884 
L 147.416107 119.359568 
L 151.277273 117.172025 
L 155.138438 115.01949 
L 158.999604 112.900333 
L 162.860769 110.813049 
L 166.721935 108.756241 
L 170.5831 106.728612 
L 174.444266 104.728955 
L 178.305431 102.756142 
L 182.166597 100.809121 
L 186.027762 98.886905 
L 189.888928 96.988571 
L 193.750093 95.11325 
L 197.611259 93.260124 
L 201.472424 91.428424 
L 205.33359 89.617423 
L 209.194755 87.826434 
L 213.055921 86.05481 
L 216.917086 84.301934 
L 220.778252 82.567225 
L 224.639417 80.850128 
L 228.500583 79.150118 
L 232.361748 77.466694 
L 236.222914 75.799381 
L 240.084079 74.147725 
L 243.945245 72.511292 
L 247.80641 70.889669 
L 251.667576 69.282462 
L 255.528741 67.689292 
L 259.389907 66.109798 
L 263.251072 64.543634 
L 267.112238 62.990468 
L 270.973403 61.449982 
L 274.834569 59.921869 
L 278.695734 58.405837 
L 282.5569 56.901604 
L 286.418065 55.408897 
L 290.279231 53.927457 
L 294.140396 52.457032 
L 298.001562 50.997379 
L 301.862727 49.548266 
L 305.723893 48.109467 
L 309.585058 46.680766 
L 313.446224 45.261952 
L 317.307389 43.852823 
L 321.168555 42.453183 
L 325.029721 41.062844 
L 328.890886 39.681622 
L 332.752052 38.30934 
L 336.613217 36.945828 
L 340.474383 35.590918 
L 344.335548 34.24445 
L 348.196714 32.906268 
L 352.057879 31.576221 
L 355.919045 30.254163 
L 359.78021 28.939951 
L 363.641376 27.633447 
L 367.502541 26.334517 
L 371.363707 25.043032 
L 375.224872 23.758863 
L 379.086038 22.481889 
L 382.947203 21.21199 
L 386.808369 19.949049 
L 390.669534 18.692954 
L 394.5307 17.443594 
L 398.391865 16.200862 
L 402.253031 14.964654 
L 406.114196 13.734867 
L 409.975362 12.511404 
L 413.836527 11.294167 
L 417.697693 10.083062 
" style="fill:none;stroke:#c371d2;stroke-linecap:round;"/>
   </g>
   <g id="legend_1">
    <g id="patch_5">
     <path d="M 29.574646 57.582146 
L 74.934646 57.582146 
Q 76.534646 57.582146 76.534646 55.982146 
L 76.534646 8.434646 
Q 76.534646 6.834646 74.934646 6.834646 
L 29.574646 6.834646 
Q 27.974646 6.834646 27.974646 8.434646 
L 27.974646 55.982146 
Q 27.974646 57.582146 29.574646 57.582146 
z
" style="fill:#ffffff;stroke:#000000;stroke-linejoin:miter;"/>
    </g>
    <g id="line2d_15">
     <path d="M 31.174646 13.313396 
L 47.174646 13.313396 
" style="fill:none;stroke:#009afa;stroke-linecap:square;"/>
    </g>
    <g id="line2d_16"/>
    <g id="text_12">
     <!-- $n_3(k)$ -->
     <defs>
      <path d="M 55.71875 33.015625 
L 49.3125 0 
L 40.28125 0 
L 46.6875 32.671875 
Q 47.125 34.96875 47.359375 36.71875 
Q 47.609375 38.484375 47.609375 39.5 
Q 47.609375 43.609375 45.015625 45.890625 
Q 42.4375 48.1875 37.796875 48.1875 
Q 30.5625 48.1875 25.34375 43.375 
Q 20.125 38.578125 18.5 30.328125 
L 12.5 0 
L 3.515625 0 
L 14.109375 54.6875 
L 23.09375 54.6875 
L 21.296875 46.09375 
Q 25.046875 50.828125 30.3125 53.40625 
Q 35.59375 56 41.40625 56 
Q 48.640625 56 52.609375 52.09375 
Q 56.59375 48.1875 56.59375 41.109375 
Q 56.59375 39.359375 56.375 37.359375 
Q 56.15625 35.359375 55.71875 33.015625 
z
" id="DejaVuSans-Oblique-110"/>
      <path d="M 40.578125 39.3125 
Q 47.65625 37.796875 51.625 33 
Q 55.609375 28.21875 55.609375 21.1875 
Q 55.609375 10.40625 48.1875 4.484375 
Q 40.765625 -1.421875 27.09375 -1.421875 
Q 22.515625 -1.421875 17.65625 -0.515625 
Q 12.796875 0.390625 7.625 2.203125 
L 7.625 11.71875 
Q 11.71875 9.328125 16.59375 8.109375 
Q 21.484375 6.890625 26.8125 6.890625 
Q 36.078125 6.890625 40.9375 10.546875 
Q 45.796875 14.203125 45.796875 21.1875 
Q 45.796875 27.640625 41.28125 31.265625 
Q 36.765625 34.90625 28.71875 34.90625 
L 20.21875 34.90625 
L 20.21875 43.015625 
L 29.109375 43.015625 
Q 36.375 43.015625 40.234375 45.921875 
Q 44.09375 48.828125 44.09375 54.296875 
Q 44.09375 59.90625 40.109375 62.90625 
Q 36.140625 65.921875 28.71875 65.921875 
Q 24.65625 65.921875 20.015625 65.03125 
Q 15.375 64.15625 9.8125 62.3125 
L 9.8125 71.09375 
Q 15.4375 72.65625 20.34375 73.4375 
Q 25.25 74.21875 29.59375 74.21875 
Q 40.828125 74.21875 47.359375 69.109375 
Q 53.90625 64.015625 53.90625 55.328125 
Q 53.90625 49.265625 50.4375 45.09375 
Q 46.96875 40.921875 40.578125 39.3125 
z
" id="DejaVuSans-51"/>
      <path d="M 31 75.875 
Q 24.46875 64.65625 21.28125 53.65625 
Q 18.109375 42.671875 18.109375 31.390625 
Q 18.109375 20.125 21.3125 9.0625 
Q 24.515625 -2 31 -13.1875 
L 23.1875 -13.1875 
Q 15.875 -1.703125 12.234375 9.375 
Q 8.59375 20.453125 8.59375 31.390625 
Q 8.59375 42.28125 12.203125 53.3125 
Q 15.828125 64.359375 23.1875 75.875 
z
" id="DejaVuSans-40"/>
      <path d="M 8.015625 75.875 
L 15.828125 75.875 
Q 23.140625 64.359375 26.78125 53.3125 
Q 30.421875 42.28125 30.421875 31.390625 
Q 30.421875 20.453125 26.78125 9.375 
Q 23.140625 -1.703125 15.828125 -13.1875 
L 8.015625 -13.1875 
Q 14.5 -2 17.703125 9.0625 
Q 20.90625 20.125 20.90625 31.390625 
Q 20.90625 42.671875 17.703125 53.65625 
Q 14.5 64.65625 8.015625 75.875 
z
" id="DejaVuSans-41"/>
     </defs>
     <g transform="translate(53.574646 16.113396)scale(0.08 -0.08)">
      <use transform="translate(0 0.015625)" xlink:href="#DejaVuSans-Oblique-110"/>
      <use transform="translate(63.378906 -16.390625)scale(0.7)" xlink:href="#DejaVuSans-51"/>
      <use transform="translate(110.649414 0.015625)" xlink:href="#DejaVuSans-40"/>
      <use transform="translate(149.663086 0.015625)" xlink:href="#DejaVuSans-Oblique-107"/>
      <use transform="translate(207.573242 0.015625)" xlink:href="#DejaVuSans-41"/>
     </g>
    </g>
    <g id="line2d_17">
     <path d="M 31.174646 25.055896 
L 47.174646 25.055896 
" style="fill:none;stroke:#e36f47;stroke-linecap:square;"/>
    </g>
    <g id="line2d_18"/>
    <g id="text_13">
     <!-- $n_5(k)$ -->
     <g transform="translate(53.574646 27.855896)scale(0.08 -0.08)">
      <use transform="translate(0 0.015625)" xlink:href="#DejaVuSans-Oblique-110"/>
      <use transform="translate(63.378906 -16.390625)scale(0.7)" xlink:href="#DejaVuSans-53"/>
      <use transform="translate(110.649414 0.015625)" xlink:href="#DejaVuSans-40"/>
      <use transform="translate(149.663086 0.015625)" xlink:href="#DejaVuSans-Oblique-107"/>
      <use transform="translate(207.573242 0.015625)" xlink:href="#DejaVuSans-41"/>
     </g>
    </g>
    <g id="line2d_19">
     <path d="M 31.174646 36.798396 
L 47.174646 36.798396 
" style="fill:none;stroke:#3ea44e;stroke-linecap:square;"/>
    </g>
    <g id="line2d_20"/>
    <g id="text_14">
     <!-- $h(k)$ -->
     <defs>
      <path d="M 55.71875 33.015625 
L 49.3125 0 
L 40.28125 0 
L 46.6875 32.671875 
Q 47.125 34.96875 47.359375 36.71875 
Q 47.609375 38.484375 47.609375 39.5 
Q 47.609375 43.609375 45.015625 45.890625 
Q 42.4375 48.1875 37.796875 48.1875 
Q 30.5625 48.1875 25.265625 43.296875 
Q 19.96875 38.421875 18.40625 30.328125 
L 12.5 0 
L 3.515625 0 
L 18.3125 75.984375 
L 27.296875 75.984375 
L 21.484375 46.09375 
Q 24.90625 50.6875 30.21875 53.34375 
Q 35.546875 56 41.40625 56 
Q 48.640625 56 52.609375 52.09375 
Q 56.59375 48.1875 56.59375 41.109375 
Q 56.59375 39.359375 56.375 37.359375 
Q 56.15625 35.359375 55.71875 33.015625 
z
" id="DejaVuSans-Oblique-104"/>
     </defs>
     <g transform="translate(53.574646 39.598396)scale(0.08 -0.08)">
      <use transform="translate(0 0.015625)" xlink:href="#DejaVuSans-Oblique-104"/>
      <use transform="translate(63.378906 0.015625)" xlink:href="#DejaVuSans-40"/>
      <use transform="translate(102.392578 0.015625)" xlink:href="#DejaVuSans-Oblique-107"/>
      <use transform="translate(160.302734 0.015625)" xlink:href="#DejaVuSans-41"/>
     </g>
    </g>
    <g id="line2d_21">
     <path d="M 31.174646 49.918396 
L 47.174646 49.918396 
" style="fill:none;stroke:#c371d2;stroke-linecap:square;"/>
    </g>
    <g id="line2d_22"/>
    <g id="text_15">
     <!-- $\sqrt{k}$ -->
     <defs>
      <path d="M 108.90625 155.203125 
L 52.703125 -29.5 
L 48.5 -29.5 
L 25.40625 45.59375 
Q 24.296875 49.203125 22.890625 50.796875 
Q 21.5 52.40625 19.203125 52.40625 
Q 15.796875 52.40625 12.40625 49.703125 
L 11.203125 51.703125 
L 27.59375 64.296875 
L 30.09375 64.296875 
L 52.796875 -9.40625 
L 53.203125 -9.40625 
L 103.203125 155.203125 
z
" id="STIXSizeOneSym-Regular-8730"/>
     </defs>
     <g transform="translate(53.574646 52.718396)scale(0.08 -0.08)">
      <use transform="translate(0 17.90625)scale(0.580577)" xlink:href="#STIXSizeOneSym-Regular-8730"/>
      <use transform="translate(73.855545 0.765625)" xlink:href="#DejaVuSans-Oblique-107"/>
      <path d="M 61.355545 101.5 
L 61.355545 107.75 
L 144.265701 107.75 
L 144.265701 101.5 
L 61.355545 101.5 
z
"/>
     </g>
    </g>
   </g>
  </g>
 </g>
 <defs>
  <clipPath id="p35381a822d">
   <rect height="256.110709" width="405.190709" x="23.974646" y="2.834646"/>
  </clipPath>
 </defs>
</svg>
